<svg width="162" height="59" viewBox="0 0 162 59" fill="none" xmlns="http://www.w3.org/2000/svg">
<g id="Frame">
<g id="Group">
<path id="Vector" fill-rule="evenodd" clip-rule="evenodd" d="M144.06 15.66C142.99 15.66 142.54 16.63 142.46 17.34H145.48C145.49 16.7 145.21 15.66 144.06 15.66ZM76.75 19.42C76.75 20.09 77.19 20.4 77.73 20.4C78.43 20.4 78.93 19.95 79.1 19.46C79.14 19.33 79.14 19.21 79.14 19.08V18.14C77.92 18.12 76.74 18.38 76.74 19.42H76.75ZM110.05 15.73C108.83 15.73 108.33 16.93 108.33 18.07C108.33 19.39 109 20.39 110.03 20.39C111.03 20.39 111.71 19.43 111.71 18.04C111.71 16.97 111.23 15.74 110.05 15.74V15.73ZM98.42 15.66C97.36 15.66 96.9 16.63 96.83 17.34H99.85C99.85 16.7 99.58 15.66 98.42 15.66ZM85.97 15.83C85.27 15.83 84.62 16.33 84.43 17.1C84.4 17.22 84.38 17.38 84.38 17.55V18.65C84.3747 18.8608 84.4116 19.0706 84.4886 19.2669C84.5656 19.4633 84.6811 19.6422 84.8284 19.7932C84.9756 19.9441 85.1516 20.0641 85.346 20.146C85.5403 20.2279 85.7491 20.2701 85.96 20.27C87.04 20.27 87.7 19.42 87.7 18.03C87.7 16.82 87.12 15.83 85.97 15.83ZM147.07 38.21H138.2C138.181 38.7741 138.287 39.3354 138.51 39.854C138.733 40.3725 139.068 40.8355 139.49 41.21C140.23 41.83 141.19 42.14 142.39 42.14C143.7 42.14 144.89 41.94 145.97 41.51L146.44 43.57C145.18 44.12 143.69 44.38 141.97 44.38C139.91 44.38 138.29 43.78 137.12 42.57C136.515 41.9134 136.047 41.1428 135.743 40.3032C135.439 39.4635 135.305 38.5718 135.35 37.68C135.35 35.68 135.9 34.01 136.99 32.67C137.546 31.9753 138.257 31.4207 139.067 31.0508C139.876 30.6809 140.761 30.5059 141.65 30.54C143.57 30.54 145.02 31.24 146 32.67C146.818 33.9145 147.23 35.3817 147.18 36.87C147.18 37.39 147.14 37.84 147.07 38.21ZM134.87 17.38V21.48H133.14V11.5H134.87V15.56H134.9C135.1 15.24 135.4 14.97 135.75 14.79C136.1 14.59 136.51 14.48 136.95 14.48C138.12 14.48 139.35 15.25 139.35 17.45V21.49H137.61V17.63C137.61 16.65 137.24 15.89 136.29 15.89C135.61 15.89 135.13 16.34 134.94 16.86C134.88 17.01 134.87 17.19 134.87 17.38ZM134.42 33.44C134.12 33.39 133.82 33.36 133.49 33.36C133.022 33.3392 132.556 33.4363 132.134 33.6425C131.713 33.8487 131.351 34.1573 131.08 34.54C130.563 35.3131 130.303 36.2304 130.34 37.16V44.14H127.38V35.02C127.38 33.5 127.36 32.1 127.31 30.84H129.88L129.98 33.38H130.07C130.37 32.51 130.87 31.81 131.55 31.28C132.165 30.822 132.913 30.5764 133.68 30.58C133.96 30.58 134.2 30.58 134.42 30.62V33.44ZM126.83 14.64H127.8V13.35L129.5 12.87V14.63H131.15V15.93H129.5V18.95C129.5 19.8 129.73 20.22 130.39 20.22C130.69 20.22 130.87 20.2 131.07 20.15L131.09 21.45C130.84 21.55 130.38 21.65 129.84 21.65C129.19 21.65 128.67 21.43 128.35 21.08C127.97 20.68 127.8 20.05 127.8 19.15V15.93H126.83V14.63V14.64ZM123.78 42.42C123.162 43.0914 122.406 43.62 121.563 43.9689C120.72 44.3178 119.811 44.4785 118.9 44.44C118.027 44.4788 117.156 44.3251 116.349 43.9898C115.542 43.6546 114.819 43.146 114.23 42.5C113.053 41.145 112.435 39.3936 112.5 37.6C112.5 35.54 113.1 33.85 114.29 32.54C114.902 31.8812 115.65 31.3637 116.483 31.0235C117.315 30.6833 118.212 30.5285 119.11 30.57C121.08 30.57 122.64 31.21 123.83 32.51C124.996 33.8577 125.604 35.5994 125.53 37.38C125.603 39.2206 124.978 41.021 123.78 42.42ZM109.98 21.64C108.05 21.64 106.55 20.32 106.55 18.11C106.55 15.86 108.02 14.48 110.09 14.48C112.13 14.48 113.49 15.91 113.49 18C113.49 20.52 111.72 21.64 109.98 21.64ZM111.65 33.05H108.38V39.52C108.38 41.16 108.96 41.97 110.11 41.97C110.64 41.97 111.08 41.94 111.43 41.85L111.51 44.08C110.93 44.3 110.16 44.41 109.21 44.41C108.706 44.4396 108.201 44.3603 107.73 44.1774C107.258 43.9945 106.832 43.7123 106.48 43.35C105.81 42.64 105.48 41.45 105.48 39.76V33.06H103.54V30.84H105.49V28.4L108.39 27.53V30.83H111.65V33.05ZM101.23 42.8C100.02 43.88 98.35 44.41 96.2 44.41C94.5298 44.488 92.8719 44.0891 91.42 43.26L92.11 40.8C93.3992 41.563 94.8719 41.9606 96.37 41.95C97.49 41.95 98.35 41.7 98.97 41.2C99.59 40.7 99.9 40.03 99.9 39.18C99.9 38.44 99.64 37.81 99.14 37.3C98.3952 36.6585 97.5276 36.1753 96.59 35.88C93.36 34.68 91.75 32.91 91.75 30.6C91.75 29.08 92.31 27.84 93.45 26.87C94.7411 25.8517 96.3578 25.3364 98 25.42C99.68 25.42 101.07 25.72 102.19 26.29L101.44 28.7C100.35 28.1231 99.1328 27.8307 97.9 27.85C96.86 27.85 96.04 28.12 95.45 28.62C94.96 29.08 94.72 29.64 94.72 30.29C94.72 31.02 95 31.62 95.56 32.1C96.06 32.54 96.96 33.01 98.24 33.52C99.5701 33.9846 100.772 34.7553 101.75 35.77C102.508 36.6602 102.908 37.8011 102.87 38.97C102.87 40.54 102.32 41.82 101.24 42.8H101.23ZM86.35 21.64C85.46 21.64 84.67 21.3 84.18 20.46H84.15L84.07 21.49H82.59C82.62 21.02 82.65 20.26 82.65 19.56V11.5H84.38V15.58H84.4C84.6394 15.2211 84.9682 14.9309 85.354 14.738C85.7398 14.5451 86.1693 14.4562 86.6 14.48C88.27 14.48 89.47 15.88 89.46 17.95C89.46 20.42 87.9 21.65 86.35 21.65V21.64ZM84.32 42.7C83.7988 43.2639 83.1638 43.7106 82.457 44.0106C81.7502 44.3106 80.9877 44.4569 80.22 44.44C78.45 44.44 77.19 43.81 76.42 42.55V49.54H73.46V35.2C73.46 33.78 73.43 32.32 73.36 30.83H75.95L76.12 32.93H76.17C76.6339 32.1656 77.2965 31.5414 78.0872 31.124C78.878 30.7066 79.7672 30.5117 80.66 30.56C82.23 30.56 83.54 31.18 84.59 32.42C85.6899 33.8091 86.2478 35.5504 86.16 37.32C86.16 39.59 85.55 41.37 84.32 42.69V42.7ZM71.05 21.49H72.78V11.49H71.05V21.49ZM69.7 42.69C69.1797 43.2557 68.5451 43.7043 67.8383 44.006C67.1314 44.3077 66.3684 44.4557 65.6 44.44C63.84 44.44 62.57 43.81 61.8 42.55V49.54H58.85V35.2C58.85 33.78 58.81 32.32 58.74 30.83H61.34L61.5 32.93H61.55C62.0147 32.164 62.6789 31.5389 63.4716 31.1214C64.2642 30.7039 65.1555 30.5099 66.05 30.56C67.61 30.56 68.92 31.18 69.98 32.42C71.0766 33.8108 71.6341 35.5508 71.55 37.32C71.55 39.59 70.94 41.37 69.7 42.69ZM58.13 19.6C58.13 17.88 59.66 17 62.19 17.01V16.9C62.19 16.45 62.01 15.7 60.8 15.7C60.12 15.7 59.42 15.91 58.96 16.21L58.62 15.08C59.12 14.78 60.02 14.48 61.1 14.48C63.29 14.48 63.92 15.88 63.92 17.38V19.84C63.92 20.46 63.95 21.06 64.04 21.49H62.47L62.35 20.73H62.31C62.0648 21.0281 61.754 21.2654 61.4018 21.4232C61.0496 21.5811 60.6657 21.6553 60.28 21.64C58.9 21.64 58.13 20.64 58.13 19.6ZM54.56 21.49H52.86L50.31 14.63H52.19L53.29 18.11C53.49 18.71 53.63 19.26 53.76 19.83H53.81C53.93 19.26 54.09 18.73 54.27 18.11L55.37 14.63H57.18L54.56 21.49ZM53.89 44.14L52.17 38.73H46.17L44.53 44.14H41.47L47.4 25.7H51.07L57.04 44.15H53.9L53.89 44.14ZM33 43.44C33 44.2436 32.6808 45.0143 32.1125 45.5825C31.5443 46.1508 30.7736 46.47 29.97 46.47H16.97C16.1681 46.47 15.3989 46.1521 14.831 45.5861C14.263 45.02 13.9426 44.2519 13.94 43.45V14.57C13.9426 13.7655 14.2641 12.9948 14.8339 12.4268C15.4038 11.8589 16.1755 11.54 16.98 11.54H29.98C30.7811 11.5453 31.5477 11.8665 32.1132 12.4339C32.6787 13.0013 32.9974 13.7689 33 14.57V43.45V43.44ZM44.53 12H46.73L49.82 21.49H47.95L47.09 18.79H44.09L43.27 21.49H41.5L44.53 12ZM66.6 21.5H68.33V14.64H66.6V21.5ZM67.47 11.79C68.07 11.79 68.43 12.19 68.44 12.73C68.44 13.23 68.06 13.66 67.46 13.66C67.335 13.6654 67.2102 13.6453 67.0933 13.6009C66.9763 13.5565 66.8697 13.4887 66.7798 13.4016C66.6899 13.3146 66.6188 13.2101 66.5707 13.0947C66.5226 12.9792 66.4985 12.8551 66.5 12.73C66.5 12.2 66.9 11.79 67.47 11.79ZM77.7 15.7C77.03 15.7 76.33 15.91 75.86 16.21L75.52 15.08C76.03 14.78 76.92 14.48 78 14.48C80.2 14.48 80.83 15.88 80.83 17.38V19.84C80.83 20.46 80.86 21.06 80.94 21.49H79.38L79.25 20.73H79.21C78.9659 21.0267 78.6566 21.2632 78.3063 21.421C77.956 21.5788 77.574 21.6537 77.19 21.64C75.81 21.64 75.03 20.64 75.03 19.6C75.03 17.88 76.56 17 79.1 17.01V16.9C79.1 16.45 78.91 15.7 77.7 15.7ZM91.43 21.49H93.16V11.49H91.43V21.49ZM98.53 14.48C100.75 14.48 101.48 16.31 101.48 17.81C101.48 18.14 101.45 18.39 101.42 18.55H96.83C96.88 19.78 97.83 20.32 98.94 20.32C99.74 20.32 100.31 20.19 100.84 20.01L101.1 21.19C100.5 21.44 99.69 21.63 98.7 21.63C96.48 21.63 95.17 20.26 95.17 18.17C95.17 16.27 96.33 14.47 98.52 14.47L98.53 14.48ZM116.69 14.63L116.78 15.66H116.82C117.052 15.2885 117.377 14.9841 117.763 14.7771C118.149 14.5701 118.582 14.4677 119.02 14.48C120.22 14.48 121.45 15.25 121.45 17.42V21.49H119.72V17.62C119.72 16.63 119.35 15.89 118.42 15.89C117.72 15.89 117.24 16.38 117.06 16.89C117 17.04 116.98 17.25 116.98 17.45V21.49H115.25V16.67C115.25 15.89 115.22 15.22 115.19 14.63H116.69ZM144.16 14.48C146.38 14.48 147.11 16.31 147.11 17.81C147.11 18.14 147.08 18.39 147.05 18.55H142.47C142.51 19.78 143.47 20.32 144.57 20.32C145.38 20.32 145.94 20.19 146.47 20.01L146.73 21.19C146.14 21.44 145.33 21.63 144.33 21.63C142.12 21.63 140.81 20.26 140.81 18.17C140.81 16.27 141.96 14.47 144.16 14.47V14.48ZM46.06 15.15C45.88 14.58 45.72 13.93 45.58 13.38H45.56C45.41 13.93 45.26 14.59 45.1 15.15L44.37 17.49H46.81L46.06 15.15ZM62.19 19.46C62.23 19.33 62.23 19.21 62.23 19.08V18.14C61.01 18.12 59.84 18.38 59.84 19.42C59.84 20.09 60.28 20.4 60.83 20.4C61.53 20.4 62.03 19.95 62.19 19.46ZM141.43 32.59C140.46 32.59 139.68 33 139.07 33.79C138.567 34.4584 138.266 35.2562 138.2 36.09H144.36C144.395 35.2926 144.193 34.5028 143.78 33.82C143.535 33.4229 143.187 33.0992 142.774 32.8828C142.36 32.6664 141.896 32.5652 141.43 32.59ZM49.16 28.16H49.11C48.91 28.94 48.63 30.1 48.23 31.63L46.69 36.45H51.65L50.09 31.63C49.92 31.13 49.61 29.98 49.16 28.16ZM79.7 32.92C78.97 32.92 78.32 33.16 77.72 33.64C77.1311 34.1252 76.7225 34.7944 76.56 35.54C76.46 35.92 76.42 36.21 76.42 36.45V38.67C76.42 39.64 76.72 40.45 77.31 41.12C77.9 41.78 78.67 42.12 79.61 42.12C80.74 42.12 81.61 41.69 82.22 40.83C82.85 39.97 83.16 38.84 83.16 37.43C83.16 36.14 82.86 35.07 82.28 34.23C81.992 33.8151 81.6055 33.4782 81.1552 33.2496C80.7049 33.0209 80.2049 32.9077 79.7 32.92ZM119 32.73C117.82 32.73 116.92 33.26 116.3 34.32C115.77 35.18 115.5 36.25 115.5 37.5C115.5 38.73 115.77 39.77 116.3 40.64C116.558 41.1269 116.946 41.5326 117.421 41.8116C117.896 42.0907 118.439 42.232 118.99 42.22C120.11 42.22 120.99 41.69 121.63 40.61C122.18 39.73 122.46 38.67 122.46 37.45C122.46 36.23 122.19 35.18 121.66 34.31C121.408 33.827 121.027 33.4234 120.559 33.1444C120.091 32.8655 119.555 32.722 119.01 32.73H119ZM65.08 32.92C64.36 32.92 63.7 33.16 63.1 33.64C62.5111 34.1252 62.1025 34.7944 61.94 35.54C61.84 35.92 61.8 36.21 61.8 36.45V38.67C61.8 39.64 62.1 40.45 62.7 41.12C63.28 41.78 64.06 42.12 65 42.12C66.11 42.12 66.99 41.69 67.6 40.83C68.23 39.97 68.53 38.84 68.53 37.43C68.53 36.14 68.25 35.07 67.66 34.23C67.372 33.8151 66.9855 33.4782 66.5352 33.2496C66.0849 33.0209 65.5849 32.9077 65.08 32.92ZM15.78 40.38H31.16V17.64H15.78V40.38ZM23.48 41.73C23.0865 41.7615 22.7194 41.94 22.4516 42.23C22.1839 42.52 22.0352 42.9003 22.0352 43.295C22.0352 43.6897 22.1839 44.0699 22.4516 44.36C22.7194 44.65 23.0865 44.8285 23.48 44.86C23.8735 44.8285 24.2406 44.65 24.5084 44.36C24.7761 44.0699 24.9248 43.6897 24.9248 43.295C24.9248 42.9003 24.7761 42.52 24.5084 42.23C24.2406 41.94 23.8735 41.7615 23.48 41.73ZM21.97 15.33H24.97C25.17 15.33 25.34 15.16 25.34 14.97C25.34 14.77 25.18 14.61 24.98 14.61H21.97C21.77 14.61 21.61 14.77 21.61 14.97C21.61 15.17 21.77 15.32 21.97 15.32V15.33Z" fill="#FB3B2D"/>
<path id="Vector_2" fill-rule="evenodd" clip-rule="evenodd" d="M7.72 2.34998C6.20377 2.35262 4.7504 2.95611 3.67827 4.02824C2.60613 5.10038 2.00264 6.55375 2 8.06998V49.94C2.00528 51.4545 2.60994 52.9053 3.68179 53.9753C4.75364 55.0452 6.2055 55.6473 7.72 55.65H153.4C154.914 55.6473 156.366 55.0452 157.438 53.9753C158.51 52.9053 159.115 51.4545 159.12 49.94V8.06998C159.117 6.55375 158.514 5.10038 157.442 4.02824C156.37 2.95611 154.916 2.35262 153.4 2.34998H7.72ZM153.4 57.65H7.72C5.67507 57.6473 3.7145 56.8345 2.26758 55.3895C0.82066 53.9444 0.00528919 51.9849 0 49.94L0 8.06998C0.00264597 6.02332 0.81685 4.06124 2.26406 2.61403C3.71127 1.16683 5.67334 0.352622 7.72 0.349976H153.4C155.447 0.352622 157.409 1.16683 158.856 2.61403C160.303 4.06124 161.117 6.02332 161.12 8.06998V49.94C161.115 51.9849 160.299 53.9444 158.852 55.3895C157.406 56.8345 155.445 57.6473 153.4 57.65Z" fill="#FB3B2D"/>
</g>
</g>
</svg>
