<svg width="361" height="80" viewBox="0 0 361 80" fill="none" xmlns="http://www.w3.org/2000/svg">
<path d="M349.626 5.31431e-05C338.369 -0.071058 322.187 6.88598 312.241 7.1082C297.44 7.43709 293.384 -0.432539 287.178 3.59413C281.118 8.24302 289.451 20.0949 290.901 21.7512C291.486 22.5033 292.114 23.2206 292.783 23.8993L292.75 23.9289C290.136 26.3473 287.801 29.0528 285.791 31.9941C284.38 33.9653 283.12 36.0404 282.021 38.2015C280.08 42.083 278.648 46.2015 277.76 50.4534C276.84 54.9423 276.529 59.5319 277.313 64.0623C278.014 68.1097 279.887 72.1156 283.003 74.8593C286.492 77.9289 291.105 79.4667 295.727 79.6238C299.97 79.7658 304.147 78.5459 307.649 76.1423C311.792 73.2741 314.798 69.1289 316.763 64.5275C317.994 61.6504 318.923 58.6519 319.532 55.5793C320.231 52.1097 320.967 48.646 321.935 45.2445C322.32 43.8608 322.775 42.4978 323.308 41.1645C323.835 39.9529 324.488 38.8008 325.258 37.7275C325.444 37.4964 325.64 37.2712 325.85 37.0519C328.247 37.0045 330.643 36.7971 333.014 36.4297C336.244 35.902 339.402 34.9992 342.423 33.7393C344.086 33.0875 345.693 32.2934 347.223 31.3689C353.549 27.683 364.74 17.686 361.299 6.73487C359.449 1.74524 355.126 0.0356087 349.626 5.31431e-05ZM107.013 3.57042C95.7005 3.57042 88.0929 9.54079 88.1609 17.9852C88.1609 36.5897 114.144 29.1764 114.144 37.7571C114.144 40.2964 111.608 41.6089 107.013 41.6089C102.213 41.6089 99.9526 39.9615 99.8846 36.7349H87.4093C87.4093 46.4149 94.3334 51.7689 106.536 51.7689C118.396 51.7689 126.486 46.483 126.486 37.766C126.486 18.2697 100.506 25.8193 100.506 17.7186C100.506 15.1793 102.628 13.7393 106.88 13.7393C111.197 13.7393 113.185 15.3156 113.185 18.6815H125.732C125.732 9.27709 118.671 3.57042 107.016 3.57042H107.013ZM0 4.19561V14.4919H12.5107V51.2889H24.9889V14.4889H37.5647V4.19561H0ZM129.7 4.19561V14.4919H142.213V51.2889H154.688V14.4889H167.27V4.19561H129.7ZM175.239 4.19561V51.2889H209.788V41.126H187.714V32.5452H206.43V22.7319H187.714V14.3556H209.448V4.19561H175.239ZM52.8895 4.19857L36.5616 51.2889H49.0368L51.6408 42.5719H68.8504L71.4543 51.2889H84.0006L67.6845 4.19857H52.8895ZM217.615 4.21042V51.2889H230.093V35.4964H236.195L240.515 44.0001C242.846 48.6015 245.655 51.6208 253.129 51.6208C254.886 51.6447 256.638 51.4304 258.337 50.9838V41.6089C257.468 41.8546 256.568 41.9694 255.665 41.9497C253.89 41.9497 252.706 41.1971 251.759 39.3423L248.602 33.0371C253.336 30.4297 256.295 25.9675 256.295 19.8578C256.295 9.90228 249.714 4.20746 237.653 4.20746L217.615 4.21042ZM60.284 14.0149L66.0393 33.2356H54.4548L60.284 14.0149ZM230.093 14.2193H237.636C241.61 14.2193 243.666 16.5541 243.666 20.1245C243.666 23.7601 241.61 25.9586 237.636 25.9586H230.093V14.2193ZM314.505 18.8978C314.248 19.0104 313.99 19.1201 313.736 19.2386C310.886 20.5875 308.211 22.2789 305.77 24.2756C303.694 25.8997 301.818 27.7657 300.183 29.8341C297.682 33.0964 295.463 36.5657 293.549 40.2045L293.44 40.4089C292.795 41.6415 293.085 43.3571 294.393 44.0475C295.618 44.6964 297.352 44.4089 298.026 43.0934C299.305 40.665 300.709 38.3052 302.234 36.0238C302.843 35.1082 303.48 34.2134 304.142 33.3334C305.781 31.3109 307.647 29.4854 309.705 27.8934C311.966 26.1667 314.424 24.7146 317.026 23.5675C319.577 22.5215 322.246 21.7897 324.974 21.3897C326.694 21.1744 328.434 21.1575 330.158 21.3393C331.296 21.5285 332.411 21.8384 333.484 22.2638C334.334 22.6346 335.144 23.0934 335.899 23.6326C336.195 23.8845 336.473 24.1571 336.727 24.4504C336.828 24.6045 336.92 24.7467 337.005 24.9215C337.05 25.0519 337.088 25.1852 337.118 25.3186C337.118 25.446 337.118 25.5704 337.112 25.6978C337.073 25.8726 337.023 26.0475 336.964 26.2193C336.911 26.3912 336.801 26.5156 336.709 26.6638C336.538 26.8563 336.354 27.0341 336.162 27.203C335.804 27.4437 335.427 27.6548 335.035 27.8341C332.777 28.6934 330.324 28.9304 328.031 29.6919C326.595 30.1253 325.236 30.779 324 31.6297C322.568 32.6786 321.337 33.9734 320.358 35.4549C318.651 37.9615 317.627 40.9186 316.807 43.8193C315.919 46.9689 315.212 50.1689 314.561 53.3749C314.006 56.3496 313.169 59.2645 312.061 62.0801C311.182 64.1265 310.07 66.0644 308.747 67.8549C307.77 69.0829 306.663 70.2006 305.444 71.1882C304.391 71.9715 303.256 72.6381 302.059 73.1764C300.869 73.6473 299.631 73.9852 298.366 74.1838C296.982 74.3438 295.585 74.3438 294.203 74.1838C292.775 73.9687 291.375 73.596 290.028 73.0726C289.023 72.6298 288.069 72.0805 287.181 71.4341C286.45 70.8348 285.78 70.1638 285.181 69.4312C284.525 68.532 283.969 67.5644 283.521 66.5452C282.976 65.1305 282.589 63.6599 282.367 62.1601C282.082 59.5874 282.11 56.9897 282.45 54.4238C283.014 50.5449 284.065 46.7529 285.578 43.1378C286.69 40.5827 288.035 38.135 289.593 35.8252C290.279 34.7971 291.004 33.7926 291.753 32.8089C293.854 30.1423 296.272 27.7364 298.944 25.6445C301.571 23.6415 304.4 21.7778 307.43 20.4534C309.112 19.7656 310.867 19.2745 312.661 18.9897C313.274 18.9215 313.889 18.8919 314.505 18.8978Z" fill="black"/>
</svg>
