<svg width="172" height="59" viewBox="0 0 172 59" fill="none" xmlns="http://www.w3.org/2000/svg">
<g id="Frame">
<g id="Group">
<path id="Vector" fill-rule="evenodd" clip-rule="evenodd" d="M9.03 2.34998C7.31405 2.34998 5.66838 3.03163 4.45502 4.24499C3.24166 5.45835 2.56 7.10402 2.56 8.81997V49.13C2.56 52.7 5.46 55.6 9.03 55.6H163.01C166.57 55.6 169.47 52.7 169.47 49.13V8.81997C169.47 5.24998 166.57 2.34998 163.01 2.34998H9.03ZM163.01 57.6H9.03C6.78443 57.5973 4.63159 56.7041 3.04373 55.1162C1.45587 53.5284 0.562646 51.3755 0.559999 49.13V8.81997C0.559999 4.14997 4.36 0.349976 9.03 0.349976H163.01C167.67 0.349976 171.47 4.14997 171.47 8.81997V49.13C171.47 53.8 167.67 57.6 163.01 57.6Z" fill="#FB3B2D"/>
<path id="Vector_2" fill-rule="evenodd" clip-rule="evenodd" d="M55.72 15.06C55.4863 14.4106 55.286 13.7498 55.12 13.08H55.06C55.06 13.17 54.85 13.83 54.43 15.06H55.72ZM57.36 17.06H56.22C56.22 16.9 56.12 16.46 55.9 15.73H54.26C54.1059 16.1612 53.9954 16.6067 53.93 17.06H52.86C52.86 16.96 53.14 16.21 53.69 14.79C54.24 13.37 54.52 12.59 54.52 12.44H55.86C55.86 12.58 56.11 13.34 56.61 14.76C57.11 16.16 57.36 16.93 57.36 17.06ZM61.93 17.06H61.06C61.06 16.96 60.73 16.46 60.08 15.52C59.6035 14.9096 59.2132 14.2366 58.92 13.52H58.86C58.92 14.04 58.95 14.51 58.95 14.92C58.95 15.51 58.96 16.22 59 17.06H58.13C58.1999 15.5208 58.1999 13.9792 58.13 12.44H59.18C59.18 12.57 59.48 13.07 60.06 13.94C60.4941 14.5265 60.8535 15.1647 61.13 15.84H61.18C61.12 15.3 61.09 14.84 61.09 14.41C61.09 13.77 61.08 13.11 61.04 12.44H61.94C61.8732 13.9792 61.8732 15.5207 61.94 17.06H61.93ZM66.1 14.74C66.1 14.29 65.97 13.91 65.7 13.6C65.44 13.29 65.04 13.13 64.5 13.13L64.08 13.16C64.1 13.63 64.11 14.13 64.11 14.64C64.11 15.21 64.12 15.77 64.15 16.33C64.3 16.36 64.45 16.37 64.61 16.37C65.11 16.37 65.49 16.21 65.74 15.9C65.98 15.58 66.1 15.2 66.1 14.74ZM67.07 14.59C67.07 15.26 66.86 15.85 66.43 16.35C66 16.85 65.39 17.1 64.62 17.1C64.27 17.1 63.79 17.09 63.17 17.06C63.2314 15.5206 63.2314 13.9794 63.17 12.44H63.79C64.0735 12.4419 64.3569 12.4352 64.64 12.42C65.49 12.42 66.11 12.63 66.5 13.06C66.88 13.48 67.07 14 67.07 14.59ZM70.48 13.8C70.48 13.33 70.18 13.09 69.58 13.09C69.35 13.09 69.16 13.11 68.98 13.14C69.01 13.51 69.03 13.98 69.03 14.57L69.36 14.58C70.11 14.58 70.48 14.32 70.48 13.8ZM71.81 17.06H70.76C70.6131 16.5198 70.4016 15.9994 70.13 15.51C69.99 15.31 69.75 15.21 69.43 15.21H69.03C69.03 15.83 69.04 16.44 69.06 17.06H68.08C68.1432 15.5206 68.1432 13.9793 68.08 12.44H68.69C69.0468 12.4442 69.4036 12.4375 69.76 12.42C70.85 12.42 71.39 12.79 71.39 13.53C71.39 14.13 71.08 14.53 70.46 14.77V14.82C70.7 14.88 70.91 15.07 71.09 15.38C71.27 15.68 71.51 16.24 71.81 17.06ZM75.92 14.77C75.92 14.27 75.79 13.87 75.54 13.57C75.29 13.26 74.98 13.11 74.6 13.11C74.26 13.11 73.97 13.26 73.72 13.57C73.48 13.87 73.36 14.27 73.36 14.74C73.36 15.24 73.49 15.64 73.74 15.94C74 16.25 74.31 16.41 74.68 16.41C75.02 16.41 75.32 16.25 75.56 15.94C75.8 15.63 75.92 15.24 75.92 14.77ZM76.9 14.67C76.9 15.39 76.68 15.99 76.23 16.47C75.79 16.95 75.23 17.19 74.58 17.19C73.96 17.19 73.44 16.97 73.02 16.53C72.59 16.09 72.38 15.53 72.38 14.86C72.38 14.13 72.61 13.53 73.05 13.06C73.5 12.57 74.05 12.34 74.7 12.34C75.32 12.34 75.85 12.55 76.27 12.99C76.69 13.43 76.9 13.99 76.9 14.67ZM78.9 17.06H77.9C77.9618 15.5206 77.9618 13.9793 77.9 12.44H78.9C78.8371 13.9793 78.8371 15.5206 78.9 17.06ZM83.08 14.74C83.08 14.29 82.95 13.91 82.68 13.6C82.42 13.29 82.01 13.13 81.47 13.13L81.05 13.16C81.07 13.63 81.09 14.13 81.09 14.64C81.09 15.21 81.09 15.77 81.12 16.33C81.27 16.36 81.42 16.37 81.58 16.37C82.09 16.37 82.47 16.21 82.71 15.9C82.96 15.58 83.08 15.2 83.08 14.74ZM84.05 14.59C84.05 15.26 83.83 15.85 83.4 16.35C82.97 16.85 82.37 17.1 81.6 17.1C81.24 17.1 80.76 17.09 80.14 17.06C80.2034 15.5206 80.2034 13.9793 80.14 12.44H80.77C81.0501 12.4418 81.3303 12.4351 81.61 12.42C82.47 12.42 83.09 12.63 83.47 13.06C83.85 13.48 84.05 14 84.05 14.59ZM89.23 15.06C88.9963 14.4106 88.796 13.7498 88.63 13.08H88.57C88.57 13.17 88.36 13.83 87.94 15.06H89.23ZM90.87 17.06H89.73C89.73 16.9 89.63 16.46 89.41 15.73H87.77C87.6161 16.1613 87.5056 16.6068 87.44 17.06H86.37C86.37 16.96 86.65 16.21 87.2 14.79C87.75 13.37 88.03 12.59 88.03 12.44H89.37C89.37 12.58 89.62 13.34 90.12 14.76C90.62 16.16 90.87 16.93 90.87 17.06ZM94.1 13.85C94.1 13.34 93.76 13.09 93.08 13.09C92.92 13.09 92.74 13.11 92.55 13.14C92.58 13.59 92.59 14.09 92.59 14.66H92.79C93.66 14.66 94.09 14.39 94.09 13.85H94.1ZM95 13.65C95 14.22 94.8 14.63 94.38 14.9C93.8452 15.2305 93.2147 15.3714 92.59 15.3C92.59 15.75 92.61 16.33 92.63 17.06H91.63C91.6937 15.5206 91.6937 13.9793 91.63 12.44H92.25C92.6334 12.4438 93.0169 12.4371 93.4 12.42C93.85 12.42 94.23 12.52 94.54 12.72C94.85 12.92 95.01 13.24 95.01 13.65H95ZM98.35 13.85C98.35 13.34 98.01 13.09 97.34 13.09C97.17 13.09 96.99 13.11 96.81 13.14C96.83 13.59 96.85 14.09 96.85 14.66H97.05C97.91 14.66 98.35 14.39 98.35 13.85ZM99.26 13.65C99.26 14.22 99.06 14.63 98.63 14.9C98.098 15.2283 97.4713 15.3691 96.85 15.3C96.85 15.75 96.86 16.33 96.89 17.06H95.89C95.9537 15.5206 95.9537 13.9793 95.89 12.44H96.51C96.8934 12.4438 97.2769 12.4371 97.66 12.42C98.11 12.42 98.49 12.52 98.8 12.72C99.1 12.92 99.26 13.24 99.26 13.65ZM105.24 14.77C105.24 14.27 105.11 13.87 104.86 13.57C104.61 13.26 104.29 13.11 103.92 13.11C103.58 13.11 103.28 13.26 103.04 13.57C102.8 13.87 102.68 14.27 102.68 14.74C102.68 15.24 102.81 15.64 103.06 15.94C103.32 16.25 103.63 16.41 104 16.41C104.34 16.41 104.64 16.25 104.88 15.94C105.12 15.63 105.24 15.24 105.24 14.77ZM106.22 14.67C106.22 15.39 106 15.99 105.55 16.47C105.11 16.95 104.55 17.19 103.9 17.19C103.28 17.19 102.75 16.97 102.33 16.53C101.91 16.09 101.7 15.53 101.7 14.86C101.7 14.13 101.92 13.53 102.37 13.06C102.81 12.57 103.37 12.34 104.02 12.34C104.64 12.34 105.17 12.55 105.59 12.99C106.01 13.43 106.22 13.99 106.22 14.67ZM111.03 17.06H110.15C110.15 16.96 109.82 16.46 109.17 15.52C108.693 14.9097 108.303 14.2367 108.01 13.52H107.95C108.01 14.04 108.05 14.51 108.05 14.92C108.05 15.51 108.05 16.22 108.09 17.06H107.22C107.29 15.5208 107.29 13.9792 107.22 12.44H108.27C108.27 12.57 108.57 13.07 109.15 13.94C109.584 14.5265 109.943 15.1647 110.22 15.84H110.27C110.22 15.3 110.19 14.84 110.19 14.41C110.19 13.77 110.17 13.11 110.14 12.44H111.03C110.963 13.9792 110.963 15.5207 111.03 17.06ZM69.18 31.86C69.18 34.15 68.5 35.98 67.14 37.34C66.3629 38.147 65.4239 38.7807 64.3847 39.1995C63.3456 39.6183 62.2296 39.8127 61.11 39.77C59.9883 39.79 58.8742 39.5814 57.8357 39.1567C56.7973 38.732 55.8562 38.1003 55.07 37.3C54.2586 36.5085 53.6188 35.5584 53.1905 34.509C52.7621 33.4595 52.5543 32.3332 52.58 31.2C52.58 28.76 53.41 26.73 55.07 25.08C55.8571 24.2815 56.7985 23.6515 57.8369 23.2286C58.8753 22.8057 59.989 22.5986 61.11 22.62C62.28 22.62 63.41 22.85 64.48 23.31C65.4652 23.7104 66.3422 24.3374 67.04 25.14L65.6 26.6C65.0499 25.9513 64.3579 25.438 63.5775 25.0999C62.7972 24.7617 61.9494 24.6078 61.1 24.65C59.38 24.65 57.89 25.25 56.63 26.47C56.0002 27.0818 55.5058 27.8188 55.1785 28.6335C54.8512 29.4482 54.6985 30.3225 54.73 31.2C54.73 33.15 55.36 34.72 56.63 35.94C57.2181 36.5261 57.9173 36.989 58.6865 37.3016C59.4558 37.6141 60.2797 37.7699 61.11 37.76C62.94 37.76 64.47 37.15 65.69 35.93C66.49 35.13 66.94 34.03 67.07 32.6H61.1V30.63H69.05C69.1268 31.0389 69.1669 31.4539 69.17 31.87L69.18 31.86ZM73.25 36.73C73.5786 37.0824 73.9765 37.3629 74.4188 37.5539C74.8611 37.745 75.3382 37.8424 75.82 37.84C76.82 37.84 77.68 37.47 78.4 36.73C78.7719 36.3372 79.061 35.8736 79.25 35.3668C79.439 34.86 79.524 34.3203 79.5 33.78C79.5 32.56 79.13 31.58 78.4 30.84C78.0699 30.4868 77.6703 30.2059 77.2262 30.0148C76.7822 29.8238 76.3034 29.7268 75.82 29.73C74.83 29.73 73.97 30.1 73.25 30.83C72.8781 31.2227 72.589 31.6863 72.4 32.1931C72.211 32.6999 72.126 33.2396 72.15 33.78C72.15 35.01 72.52 35.98 73.25 36.73ZM71.68 29.51C72.2116 28.9512 72.8551 28.511 73.5685 28.2181C74.2819 27.9251 75.0492 27.7861 75.82 27.81C77.51 27.81 78.89 28.37 79.98 29.51C80.518 30.0799 80.938 30.7506 81.216 31.4833C81.494 32.2161 81.6245 32.9966 81.6 33.78C81.6 35.5 81.06 36.92 79.97 38.06C79.4373 38.62 78.7921 39.0609 78.0769 39.3539C77.3616 39.6469 76.5925 39.7853 75.82 39.76C75.0492 39.7839 74.2819 39.6448 73.5685 39.3519C72.8551 39.0589 72.2116 38.6187 71.68 38.06C71.139 37.4896 70.7165 36.8177 70.4367 36.0831C70.1569 35.3485 70.0255 34.5657 70.05 33.78C70.05 32.08 70.59 30.65 71.68 29.51ZM85.51 36.73C85.8397 37.0836 86.2393 37.3649 86.6834 37.556C87.1275 37.747 87.6065 37.8438 88.09 37.84C89.09 37.84 89.94 37.47 90.67 36.73C91.0401 36.3364 91.3274 35.8725 91.5146 35.3657C91.7019 34.8589 91.7853 34.3196 91.76 33.78C91.76 32.56 91.39 31.58 90.66 30.84C90.3311 30.4881 89.933 30.2078 89.4908 30.0168C89.0486 29.8258 88.5717 29.7282 88.09 29.73C87.09 29.73 86.24 30.1 85.51 30.83C85.1399 31.2235 84.8526 31.6875 84.6654 32.1943C84.4781 32.701 84.3947 33.2403 84.42 33.78C84.42 35.01 84.78 35.98 85.52 36.73H85.51ZM83.94 29.51C84.4727 28.95 85.1179 28.509 85.8331 28.216C86.5484 27.923 87.3175 27.7846 88.09 27.81C89.77 27.81 91.15 28.37 92.24 29.51C92.7797 30.0791 93.2016 30.7494 93.4814 31.4822C93.7611 32.215 93.8932 32.9959 93.87 33.78C93.87 35.5 93.32 36.92 92.24 38.06C91.7073 38.62 91.0621 39.0609 90.3469 39.3539C89.6316 39.6469 88.8625 39.7853 88.09 39.76C87.3175 39.7853 86.5484 39.6469 85.8331 39.3539C85.1179 39.0609 84.4727 38.62 83.94 38.06C83.399 37.4896 82.9765 36.8177 82.6967 36.0831C82.4169 35.3485 82.2855 34.5657 82.31 33.78C82.31 32.08 82.85 30.65 83.94 29.51ZM100.26 37.84C101.26 37.84 102.1 37.47 102.8 36.74C103.523 35.9291 103.897 34.8652 103.84 33.78C103.84 32.55 103.49 31.56 102.8 30.83C102.479 30.4767 102.087 30.1959 101.649 30.0063C101.211 29.8166 100.737 29.7224 100.26 29.73C99.28 29.73 98.44 30.1 97.74 30.83C97.0135 31.6357 96.6359 32.6964 96.69 33.78C96.69 35.01 97.04 35.98 97.74 36.73C98.44 37.47 99.28 37.84 100.26 37.84ZM100.1 44.72C98.9341 44.769 97.7867 44.416 96.85 43.72C96.0645 43.1243 95.4419 42.3401 95.04 41.44L96.96 40.64C97.18 41.24 97.56 41.76 98.14 42.17C98.71 42.59 99.37 42.79 100.1 42.79C101.26 42.79 102.18 42.44 102.84 41.75C103.51 41.05 103.84 40.11 103.84 38.92V37.84H103.74C103.38 38.39 102.86 38.85 102.19 39.22C101.2 39.7342 100.066 39.8985 98.971 39.6861C97.8762 39.4737 96.8855 38.897 96.16 38.05C95.0983 36.8861 94.5316 35.3546 94.58 33.78C94.58 32.08 95.1 30.67 96.16 29.52C96.8865 28.6744 97.8772 28.0989 98.9716 27.8865C100.066 27.6742 101.2 27.8375 102.19 28.35C102.86 28.72 103.38 29.18 103.75 29.73H103.84V28.17H105.86V38.83C105.86 40.75 105.3 42.22 104.18 43.22C103.06 44.221 101.601 44.7575 100.1 44.72ZM107.85 39.4H109.96V22.99H107.86L107.85 39.4ZM119.95 32.43C119.878 31.7362 119.567 31.0891 119.07 30.6C118.53 30.02 117.72 29.73 116.65 29.73C115.87 29.73 115.2 29.97 114.62 30.46C114.03 30.9771 113.618 31.6661 113.44 32.43H119.95ZM116.93 39.77C115.23 39.77 113.85 39.2 112.79 38.07C111.712 36.9071 111.136 35.3651 111.19 33.78C111.19 32.15 111.71 30.74 112.74 29.56C113.227 28.9894 113.835 28.5352 114.52 28.2307C115.206 27.9261 115.95 27.7789 116.7 27.8C118.36 27.8 119.7 28.34 120.7 29.43C121.7 30.51 122.2 31.97 122.2 33.78L122.18 34.18H113.31C113.319 35.1843 113.725 36.1443 114.44 36.85C115.14 37.51 115.94 37.85 116.88 37.85C118.39 37.85 119.42 37.2 119.95 35.92L121.83 36.69C121.47 37.57 120.86 38.29 120.03 38.89C119.18 39.47 118.15 39.77 116.93 39.77ZM130.5 30.73H134.03C134.91 30.73 135.63 30.43 136.16 29.84C136.7 29.24 136.96 28.59 136.96 27.87C136.96 27.15 136.7 26.49 136.16 25.9C135.63 25.3 134.91 25 134.03 25H130.5V30.73ZM130.5 39.4H128.39V22.99H133.99C135.37 22.99 136.58 23.45 137.59 24.37C138.085 24.8067 138.478 25.3463 138.742 25.9508C139.006 26.5554 139.135 27.2104 139.12 27.87C139.12 29.27 138.61 30.44 137.59 31.37C136.612 32.2752 135.323 32.7693 133.99 32.75H130.49V39.4H130.5ZM140.5 39.4H142.6V22.99H140.5V39.4ZM148.38 37.84C149.25 37.84 150.04 37.52 150.75 36.87C151.084 36.5871 151.353 36.2349 151.538 35.8378C151.723 35.4406 151.819 35.008 151.82 34.57C151.22 34.07 150.32 33.83 149.14 33.83C148.11 33.83 147.34 34.05 146.82 34.49C146.581 34.6742 146.386 34.9103 146.251 35.1805C146.116 35.4506 146.044 35.7479 146.04 36.05C146.04 36.6 146.28 37.04 146.75 37.36C147.22 37.68 147.77 37.84 148.38 37.84ZM148.04 39.77C146.84 39.77 145.84 39.42 145.04 38.73C144.24 38.05 143.84 37.13 143.84 36.01C143.84 34.78 144.31 33.83 145.26 33.13C146.283 32.4129 147.511 32.0479 148.76 32.09C150.01 32.09 151.02 32.32 151.82 32.77V32.45C151.835 32.0774 151.766 31.7063 151.619 31.3637C151.472 31.0211 151.25 30.7157 150.97 30.47C150.391 29.969 149.645 29.7047 148.88 29.73C148.28 29.73 147.72 29.87 147.22 30.16C146.72 30.46 146.38 30.85 146.2 31.36L144.27 30.53C144.53 29.86 145.05 29.23 145.81 28.66C146.698 28.049 147.763 27.7469 148.84 27.8C150.146 27.7565 151.421 28.2063 152.41 29.06C152.893 29.5111 153.27 30.0631 153.516 30.6767C153.761 31.2902 153.868 31.9503 153.83 32.61V39.4H151.82V37.84H151.72C151.33 38.459 150.783 38.9637 150.135 39.3027C149.487 39.6417 148.761 39.8029 148.03 39.77H148.04ZM158.42 44.35H156.24L158.85 38.69L154.22 28.17H156.52L159.86 36.24H159.91L163.16 28.17H165.46L158.42 44.35ZM13.24 30.91V15.2C13.24 14.55 13.36 13.97 13.82 13.48C14 13.29 14.12 13.24 14.34 13.46L24.94 24.25L31.82 31.22C32.04 31.44 32.06 31.56 31.82 31.79C26.1964 37.3797 20.5831 42.9797 14.98 48.59C14.64 48.93 14.4 48.89 14.07 48.64C13.7947 48.4287 13.5751 48.1534 13.4305 47.8379C13.2858 47.5225 13.2204 47.1765 13.24 46.83V37.5V30.91ZM15.26 12.87C15.69 12.87 15.99 12.99 16.28 13.16L37.82 25.22C38.15 25.4 38.15 25.51 37.89 25.76L33.1 30.52C32.93 30.7 32.82 30.8 32.6 30.56L15.43 13.1L15.25 12.87H15.26ZM16.86 48.45C22.08 43.18 27.3 37.9 32.5 32.63C32.82 32.31 32.97 32.35 33.26 32.65C34.584 34.0223 35.9208 35.3824 37.27 36.73C37.51 36.97 37.53 37.07 37.21 37.24L17.14 48.24C17.04 48.31 16.94 48.41 16.87 48.44L16.86 48.45ZM46.64 31.06C46.61 31.66 46.34 32.06 45.91 32.38C45.61 32.61 45.26 32.8 44.91 32.98L38.85 36.34C38.57 36.49 38.41 36.48 38.19 36.24C36.7503 34.7598 35.3003 33.2898 33.84 31.83C33.64 31.62 33.62 31.5 33.84 31.28C35.54 29.61 37.23 27.93 38.91 26.24C39.11 26.04 39.25 26.02 39.5 26.16L45.5 29.53C46.13 29.88 46.61 30.33 46.64 31.06Z" fill="#FB3B2D"/>
</g>
</g>
</svg>
